<svg width="32" height="32" viewBox="0 0 32 32" fill="none" xmlns="http://www.w3.org/2000/svg">
  <path d="M28 18C28 9.71573 21.2843 3 13 3C7.47715 3 3 7.47715 3 13C3 20.1797 8.8203 26 16 26H18C19.6569 26 21 27.3431 21 29C21 30.1046 21.8954 31 23 31C26.866 31 30 27.866 30 24V23C30 20.7909 28.2091 19 26 19H24.5C23.6716 19 23 18.3284 23 17.5C23 16.6716 23.6716 16 24.5 16H26C27.1046 16 28 17.3431 28 18Z" fill="#FDE68A" stroke="#0F172A" stroke-width="2" stroke-linecap="round" stroke-linejoin="round"/>
  <circle cx="12" cy="11" r="2" fill="#38BDF8"/>
  <circle cx="17" cy="9" r="2" fill="#F472B6"/>
  <circle cx="9" cy="16" r="2" fill="#34D399"/>
  <circle cx="15" cy="19" r="2" fill="#F97316"/>
</svg>
